# xmcd
#
# Track frame offsets: 
#        150
#        24253
#        46945
#        74043
#        94900
#        118348
#        131918
#        159170
#
# Disc length: 2397 seconds
#
# Revision: 3
# Processed by: cddbd v1.5.2PL0 Copyright (c) Steve Scherf et al.
# Submitted via: ExactAudioCopy v1.0b3
#
DISCID=6d095b08
DTITLE=Yanni - Niki Nana
DYEAR=1989
DGENRE=New Age
TTITLE0=Niki Nana (We are One)
TTITLE1=Dance With A Stranger
TTITLE2=Running Time
TTITLE3=Someday
TTITLE4=Human Condition
TTITLE5=First Touch
TTITLE6=Nightbird
TTITLE7=Quiet Man
EXTD=YEAR: 1989
EXTT0=
EXTT1=
EXTT2=
EXTT3=
EXTT4=
EXTT5=
EXTT6=
EXTT7=
PLAYORDER=
